<?xml version="1.0" standalone="no"?>
<!DOCTYPE svg PUBLIC "-//W3C//DTD SVG 20010904//EN"
 "http://www.w3.org/TR/2001/REC-SVG-20010904/DTD/svg10.dtd">
<svg version="1.0" xmlns="http://www.w3.org/2000/svg"
 width="50.000000pt" height="50.000000pt" viewBox="0 0 500.000000 500.000000"
 preserveAspectRatio="xMidYMid meet">

<g transform="translate(0.000000,500.000000) scale(0.100000,-0.100000)"
fill="#000000" stroke="none">
<path d="M2880 3608 c0 -7 -30 -98 -67 -202 -46 -132 -69 -183 -73 -170 -4 11
-18 88 -31 173 -21 142 -34 181 -59 181 -15 0 -28 -31 -100 -249 -73 -218 -78
-239 -58 -259 16 -16 38 -15 38 1 0 18 113 358 117 353 3 -2 18 -82 34 -177
28 -162 39 -199 60 -199 13 0 17 11 105 287 65 202 75 245 64 257 -15 19 -30
21 -30 4z"/>
<path d="M4191 3530 c-49 -76 -101 -217 -108 -293 -5 -47 -10 -61 -32 -76 -15
-11 -33 -20 -41 -21 -40 -6 -42 -3 -38 88 3 82 2 87 -18 90 -14 2 -40 -13 -74
-42 -30 -25 -55 -44 -57 -42 -2 2 3 21 11 41 20 48 20 71 -1 79 -23 9 -28 2
-57 -101 -30 -105 -32 -126 -12 -142 11 -9 29 4 89 70 l75 82 -5 -60 c-5 -56
-4 -61 22 -81 36 -28 54 -28 98 3 36 23 37 24 47 5 26 -49 125 -41 166 12 18
25 19 25 35 5 24 -30 58 -16 128 51 34 32 61 52 61 46 0 -50 -121 -336 -153
-363 -15 -12 -20 -11 -37 4 -19 18 -20 17 -20 -8 0 -59 65 -77 100 -28 70 99
197 446 175 481 -16 26 -53 7 -127 -67 -43 -42 -80 -74 -84 -70 -3 3 2 28 12
56 14 41 15 52 5 65 -8 9 -17 16 -22 16 -13 0 -38 -54 -45 -100 -6 -34 -15
-48 -47 -71 -48 -35 -91 -38 -107 -8 -10 17 -6 26 27 62 78 85 162 249 163
318 0 44 -15 59 -57 59 -30 0 -38 -6 -72 -60z m78 -48 c-26 -81 -124 -250
-137 -237 -12 12 76 216 122 280 17 24 21 26 24 12 2 -9 -2 -34 -9 -55z"/>
<path d="M3590 3544 c-49 -44 -114 -174 -131 -259 -29 -149 36 -242 137 -195
54 24 114 85 112 113 -1 12 10 54 25 94 29 80 43 159 33 197 -3 13 -18 38 -32
55 -38 46 -90 44 -144 -5z m114 -10 c21 -8 21 -98 1 -179 -22 -87 -80 -200
-116 -226 -63 -44 -98 9 -86 127 8 82 77 216 129 254 44 32 48 33 72 24z"/>
<path d="M3176 3448 c-18 -40 -36 -83 -40 -95 -4 -13 -18 -26 -32 -29 -26 -7
-35 -44 -10 -44 12 0 12 -8 -1 -50 -18 -61 -14 -125 7 -125 9 0 16 11 18 25 2
14 12 53 23 88 17 52 25 63 47 68 104 23 127 44 48 44 l-55 0 35 82 c35 83 37
108 9 108 -10 0 -28 -27 -49 -72z"/>
<path d="M2942 3348 c-5 -7 -24 -41 -42 -75 -40 -79 -39 -130 3 -153 25 -14
30 -13 64 5 32 18 103 104 103 125 0 4 -19 31 -42 59 -43 51 -67 62 -86 39z
m78 -84 c0 -20 -95 -120 -103 -108 -7 13 18 82 39 105 21 23 64 26 64 3z"/>
<path d="M1795 2888 c-123 -25 -204 -203 -161 -352 35 -118 108 -186 200 -186
55 0 89 16 132 62 62 65 90 164 74 262 -24 148 -127 238 -245 214z m96 -34
c42 -21 68 -85 76 -182 6 -87 -9 -201 -34 -243 -51 -86 -163 -75 -206 19 -19
41 -22 65 -22 177 0 115 3 135 22 172 13 23 33 49 45 57 29 20 81 20 119 0z"/>
<path d="M4550 2890 c-53 -10 -80 -28 -96 -65 -29 -71 -8 -152 50 -190 13 -9
62 -32 108 -51 104 -44 128 -65 128 -115 0 -84 -88 -124 -169 -78 -49 27 -99
97 -107 151 -12 74 -24 36 -24 -77 0 -110 11 -149 24 -85 7 37 16 37 65 5 97
-65 223 -33 252 65 27 89 -14 149 -136 199 -130 54 -143 61 -155 92 -15 36 -6
74 26 106 22 22 32 25 72 20 40 -4 53 -12 87 -50 23 -24 47 -63 55 -86 7 -22
17 -41 22 -41 10 0 10 64 2 138 -7 50 -24 74 -24 32 0 -25 -14 -25 -56 1 -45
28 -82 36 -124 29z"/>
<path d="M390 2870 c0 -5 16 -10 35 -10 l35 0 -2 -237 -3 -238 -32 -3 c-18 -2
-33 -7 -33 -13 0 -5 48 -9 110 -9 62 0 110 4 110 9 0 6 -17 11 -37 13 l-38 3
-3 113 -3 112 45 0 c52 0 76 -19 76 -60 0 -16 5 -32 10 -35 6 -4 10 35 10 110
0 75 -4 114 -10 110 -5 -3 -10 -19 -10 -34 0 -39 -28 -61 -79 -61 l-42 0 3
108 3 107 74 3 c42 2 87 -2 103 -9 30 -12 68 -73 68 -109 0 -11 5 -20 10 -20
6 0 10 33 10 80 l0 80 -205 0 c-130 0 -205 -4 -205 -10z"/>
<path d="M1010 2871 c0 -6 15 -11 33 -13 l32 -3 0 -235 0 -235 -32 -3 c-18 -2
-33 -7 -33 -13 0 -5 80 -9 195 -9 l195 0 0 39 c0 21 3 66 6 100 9 77 -8 82
-25 7 -21 -96 -71 -131 -176 -124 l-50 3 -3 238 -2 237 40 0 c22 0 40 5 40 10
0 6 -43 10 -110 10 -62 0 -110 -4 -110 -9z"/>
<path d="M2230 2870 c0 -5 13 -10 29 -10 37 0 58 -20 71 -68 52 -193 128 -436
136 -439 9 -3 44 108 117 367 9 33 13 24 68 -164 33 -110 61 -202 64 -205 12
-11 25 22 79 194 32 99 64 202 73 229 18 58 44 86 78 86 14 0 25 5 25 10 0 6
-40 10 -100 10 -60 0 -100 -4 -100 -10 0 -5 10 -10 23 -10 30 0 47 -18 47 -48
0 -28 -91 -324 -98 -318 -9 9 -92 308 -92 331 0 20 6 27 30 32 62 12 26 23
-75 23 -102 0 -137 -11 -75 -24 50 -10 51 -33 5 -197 -22 -81 -43 -150 -46
-153 -9 -9 -101 323 -95 339 3 8 17 15 31 15 14 0 25 5 25 10 0 6 -43 10 -110
10 -67 0 -110 -4 -110 -10z"/>
<path d="M3150 2871 c0 -6 15 -11 33 -13 l32 -3 0 -235 0 -235 -32 -3 c-18 -2
-33 -7 -33 -13 0 -5 84 -9 204 -9 l205 0 3 96 c3 94 -6 133 -17 77 -25 -121
-66 -155 -180 -151 l-70 3 -3 113 -3 112 45 0 c51 0 76 -24 76 -72 0 -16 5
-28 10 -28 6 0 10 45 10 115 0 70 -4 115 -10 115 -5 0 -10 -12 -10 -28 0 -48
-25 -72 -76 -72 l-45 0 3 108 3 107 87 0 c78 0 89 -2 113 -25 14 -14 31 -44
38 -67 6 -24 15 -43 19 -43 4 0 8 36 8 80 l0 80 -205 0 c-121 0 -205 -4 -205
-9z"/>
<path d="M3770 2871 c0 -6 15 -11 34 -11 22 0 36 -6 40 -16 3 -9 6 -111 6
-228 0 -228 -2 -236 -52 -236 -15 0 -28 -4 -28 -10 0 -6 45 -10 115 -10 70 0
115 4 115 10 0 6 -18 10 -39 10 -26 0 -41 5 -45 16 -3 9 -6 65 -6 125 l0 109
54 0 c74 0 92 -23 101 -128 10 -109 25 -139 70 -148 31 -6 41 -3 62 18 26 27
45 108 24 108 -6 0 -11 -9 -11 -21 0 -28 -18 -59 -35 -59 -15 0 -35 57 -35
100 -1 45 -37 110 -70 124 l-31 13 39 11 c99 30 127 148 49 206 -26 19 -44 21
-193 24 -111 2 -164 0 -164 -7z m297 -35 c24 -21 28 -32 28 -75 0 -41 -5 -55
-27 -77 -23 -23 -35 -27 -90 -28 l-63 -1 -3 89 c-2 49 -1 95 2 103 4 9 25 13
65 13 49 0 65 -4 88 -24z"/>
</g>
</svg>
